<svg width="62" height="62" viewBox="0 0 62 62" fill="none" xmlns="http://www.w3.org/2000/svg">
<circle cx="31" cy="31" r="29.1" stroke="black" stroke-width="1.8"/>
<path d="M31 1L31.0974 19.4563C31.1135 22.5088 35.1473 23.5896 36.6875 20.9541L46 5.01924L36.8562 21.0515C35.3439 23.7032 38.2968 26.6561 40.9485 25.1438L56.9808 16L41.0459 25.3125C38.4104 26.8527 39.4912 30.8865 42.5437 30.9026L61 31L42.5437 31.0974C39.4912 31.1135 38.4104 35.1473 41.0459 36.6875L56.9808 46L40.9485 36.8562C38.2968 35.3439 35.3439 38.2968 36.8562 40.9485L46 56.9808L36.6875 41.0459C35.1473 38.4104 31.1135 39.4912 31.0974 42.5437L31 61L30.9026 42.5437C30.8865 39.4912 26.8527 38.4104 25.3125 41.0459L16 56.9808L25.1438 40.9485C26.6561 38.2968 23.7032 35.3439 21.0515 36.8562L5.01924 46L20.9541 36.6875C23.5896 35.1473 22.5088 31.1135 19.4563 31.0974L1 31L19.4563 30.9026C22.5088 30.8865 23.5896 26.8527 20.9541 25.3125L5.01924 16L21.0515 25.1438C23.7032 26.6561 26.6561 23.7032 25.1438 21.0515L16 5.01924L25.3125 20.9541C26.8527 23.5896 30.8865 22.5088 30.9026 19.4563L31 1Z" stroke="black" stroke-width="1.8"/>
</svg>
